<?xml version="1.0"?><svg width="833.7066666666667" height="955.8533333333334" xmlns="http://www.w3.org/2000/svg">
 <title>tienkha</title>
 <metadata id="metadata7">image/svg+xml</metadata>

 <g>
  <title>Layer 1</title>
  <g id="svg_1">
   <path fill="#e73900" fill-rule="evenodd" stroke-width="1.0000004pt" id="path2043" d="m161.581512,820.690979c-183.235771,-265.654785 38.013885,-289.380249 -18.421951,-653.071808c138.406082,171.57605 177.047256,382.033173 235.152451,444.280304c40.101807,48.885925 59.879791,107.895081 54.487976,168.522827c-0.543671,47.982666 63.66861,106.122131 46.110199,150.919739c-93.3638,-70.620667 -253.952652,-24.590393 -317.328674,-110.651062z"/>
   <path fill="#e73900" fill-rule="evenodd" stroke-width="1.0000002pt" id="path2041" d="m438.694183,898.261963c1.059235,-50.875183 -64.129669,-72.945862 -90.351715,-112.678589c-43.428467,-30.348938 -57.18512,-77.588867 -58.143677,-124.108826c-3.529846,-74.399719 66.695587,-518.015625 169.003845,-637.156073c-39.207336,182.949652 58.127563,426.649908 118.262512,507.271063c40.692688,62.641541 55.990967,134.764587 41.333313,205.731812c-7.201599,56.619019 -56.866577,90.64093 -83.733704,141.423096c-26.875519,30.582825 -63.450409,33.480225 -96.370575,19.517517z"/>
   <path fill="#e73900" fill-rule="evenodd" stroke-width="1.0000002pt" id="path2063" d="m475.83017,923.149109c15.594696,-44.199097 -15.26651,-114.25769 -24.984741,-155.25061c-26.365662,-36.911987 -23.817902,-81.480835 -11.118286,-122.357727c18.694153,-65.852112 21.780426,-376.611023 323.462738,-522.54377c-233.969788,216.78965 -78.61322,392.97541 -53.285583,477.811958c14.79657,64.473083 7.232727,131.671082 -26.13446,189.65271c-46.066406,80.049866 -169.062927,124.16864 -207.939667,132.687439z"/>
   <path fill="#e78c00" fill-rule="evenodd" stroke-width="1.0000000pt" id="path1305" d="m426.122437,897.242432c0.801117,-41.533936 -48.506531,-59.55188 -68.340454,-91.989136c-32.84848,-24.77655 -43.253662,-63.34259 -43.97879,-101.320801c-2.66983,-60.738953 62.861877,-381.867279 115.416779,-520.165207c-35.863007,313.491043 56.381256,348.310959 101.866089,414.12883c30.779175,51.139771 42.350708,110.020142 31.263794,167.956604c-5.447083,46.223083 -28.927612,88.354858 -49.249329,129.812622c-20.328156,24.967346 -62.077942,12.976135 -86.978088,1.577087z"/>
   <path fill="#e78c00" fill-rule="evenodd" stroke-width="1.0000004pt" id="path2061" d="m237.062897,837.723572c-188.217552,-182.48822 16.861633,-195.19696 -35.337585,-445.819336c61.991974,118.130157 113.398132,206.872131 135.970917,290.750366c33.40506,29.618835 148.829895,210.427979 141.912109,243.209106c-72.743011,-39.108215 -188.349823,-35.59436 -242.545441,-88.140137z"/>
   <path fill="#e7e100" fill-rule="evenodd" stroke-width="1.0000004pt" id="path2051" d="m274.649506,826.735535c-112.591019,-100.933044 -28.508286,-160.194763 -29.514297,-286.261047c31.124832,110.332642 129.572952,137.519043 128.308884,203.797424c16.263824,19.826233 101.422882,161.211975 94.301819,179.380066c-37.864777,-28.640991 -150.437317,-58.6745 -193.096405,-96.916443z"/>
   <path fill="#e78c00" fill-rule="evenodd" stroke-width="1.0000002pt" id="path2045" d="m455.628632,813.132141c-19.782043,-27.695007 -17.870453,-61.13501 -8.341949,-91.804565c14.026123,-49.40863 75.651001,-324.03949 163.686523,-383.772736c-63.576721,112.896851 20.023071,286.558014 39.026428,350.210541c11.101685,48.373901 14.206665,105.591614 -19.608582,142.295776c-51.084106,55.448059 -115.564697,87.738892 -151.699127,95.480774c-22.970886,15.223022 -15.771729,-81.652832 -23.063293,-112.40979z"/>
   <path fill="#e7e100" fill-rule="evenodd" stroke-width="0.99999981pt" id="path1310" d="m423.822723,900.282288c1.589661,-25.410278 -28.122345,-37.605591 -39.407318,-57.933472c-19.455902,-15.944702 -24.805878,-39.80249 -24.244781,-63.071838c-0.027405,-37.25061 -1.373383,-269.455444 48.579254,-327.17981c-22.109314,90.744629 61.152435,226.016052 87.258911,267.386658c17.491272,32.036743 23.017761,68.359558 14.696655,103.569641c-4.558258,28.171753 -20.049133,53.412964 -33.588318,78.31604c-13.10675,14.806641 -38.350891,6.479736 -53.294403,-1.087219z"/>
   <path fill="#e7e100" fill-rule="evenodd" stroke-width="0.99999981pt" id="path2047" d="m447.584412,903.527893c12.789612,-17.688965 -3.065704,-38.630737 -1.896118,-57.91217c-6.735718,-19.457153 0.33429,-38.861084 11.400787,-55.425171c17.047729,-26.894714 47.006073,-226.762878 109.504547,-248.011108c-57.533386,56.45575 42.374451,207.404053 42.260193,247.928223c-2.055298,30.267822 -41.044556,71.174805 -63.182312,93.18573c-16.197388,18.468811 -48.25296,36.217163 -69.434082,48.657654c-16.243073,-9.324646 -21.335358,-16.856323 -28.653015,-28.423157z"/>
   <path fill="#ffff9e" fill-rule="evenodd" stroke-width="1.0000011pt" id="path2049" d="m426.024109,883.30011c-39.766968,-59.149536 -25.013306,-125.138184 -8.101929,-197.113037c7.703918,48.836365 39.79538,108.100403 57.936798,127.535034c12.520508,15.262878 18.695526,33.686646 17.012085,52.61554c-0.169769,14.981018 -8.223022,33.133179 -13.705017,47.11969c-29.149689,-22.049011 -33.354889,-3.287842 -53.141937,-30.157227z"/>
   <path fill="#ffff9e" fill-rule="evenodd" stroke-width="1.0000011pt" id="path2065" d="m470.727844,853.963257c30.806671,-63.738464 0.309784,-113.917908 70.915405,-163.920715c-21.084106,46.356323 27.137512,119.552612 21.890503,144.933655c-8.824097,42.683777 -69.759247,74.452515 -85.162964,77.74231c3.6698,-35.098633 -20.697845,-28.437927 -7.642944,-58.755249z"/>
   <path fill="#ffff9e" fill-rule="evenodd" stroke-width="1.0000011pt" id="path2067" d="m250.771179,645.348083c165.613861,197.787048 161.953522,97.9328 227.629395,267.319702c-313.042831,-131.620056 -172.547272,-119.740051 -227.629395,-267.319702z"/>
  </g>
 </g>
</svg>